inDegrees=no
num_controls=7
num_derivatives=13
num_iterations=171
num_multipliers=7
num_parameters=0
num_slacks=7
num_states=26
objective=5.195534
objective_accelerations=0.217926
objective_balance=0.009604
objective_effort=0.261769
objective_height=4.592637
objective_ligament=0.113598
solver_duration=1505.976988
status=Solve_Succeeded
success=true
DataType=double
version=3
OpenSimVersion=4.4-2022-07-23-0e9fedc
endheader
time	/jointset/ground_pelvis/pelvis_tilt/value	/jointset/ground_pelvis/pelvis_tx/value	/jointset/ground_pelvis/pelvis_ty/value	/jointset/hip_r/hip_flexion_r/value	/jointset/hip_r/hip_adduction_r/value	/jointset/hip_r/hip_rotation_r/value	/jointset/back/lumbar_extension/value	/jointset/patellofemoral_r/patellar_flexion_r/value	/jointset/knee_r/knee_flexion_r/value	/jointset/knee_r/knee_adduction_r/value	/jointset/knee_r/knee_rotation_r/value	/jointset/ankle_r/ankle_angle_r/value	/jointset/subtalar_r/subtalar_angle_r/value	/jointset/ground_pelvis/pelvis_tilt/speed	/jointset/ground_pelvis/pelvis_tx/speed	/jointset/ground_pelvis/pelvis_ty/speed	/jointset/hip_r/hip_flexion_r/speed	/jointset/hip_r/hip_adduction_r/speed	/jointset/hip_r/hip_rotation_r/speed	/jointset/back/lumbar_extension/speed	/jointset/patellofemoral_r/patellar_flexion_r/speed	/jointset/knee_r/knee_flexion_r/speed	/jointset/knee_r/knee_adduction_r/speed	/jointset/knee_r/knee_rotation_r/speed	/jointset/ankle_r/ankle_angle_r/speed	/jointset/subtalar_r/subtalar_angle_r/speed	/forceset/tau_hip_flexion_r	/forceset/tau_hip_adduction_r	/forceset/tau_hip_rotation_r	/forceset/tau_knee_flexion_r	/forceset/tau_ankle_angle_r	/forceset/tau_subtalar_angle_r	/forceset/tau_lumbar_extension	lambda_cid13_p0	lambda_cid14_p0	lambda_cid14_p1	lambda_cid14_p2	lambda_cid14_p3	lambda_cid14_p4	lambda_cid14_p5	/jointset/ground_pelvis/pelvis_tilt/accel	/jointset/ground_pelvis/pelvis_tx/accel	/jointset/ground_pelvis/pelvis_ty/accel	/jointset/hip_r/hip_flexion_r/accel	/jointset/hip_r/hip_adduction_r/accel	/jointset/hip_r/hip_rotation_r/accel	/jointset/back/lumbar_extension/accel	/jointset/patellofemoral_r/patellar_flexion_r/accel	/jointset/knee_r/knee_flexion_r/accel	/jointset/knee_r/knee_adduction_r/accel	/jointset/knee_r/knee_rotation_r/accel	/jointset/ankle_r/ankle_angle_r/accel	/jointset/subtalar_r/subtalar_angle_r/accel	gamma_cid13_p0	gamma_cid14_p0	gamma_cid14_p1	gamma_cid14_p2	gamma_cid14_p3	gamma_cid14_p4	gamma_cid14_p5
0	-0.002794183599790729	0.1293535501872675	0.9340155282359446	0.1934208783645156	-0.2205956009319802	-0.2473358361279662	-0.2903791543005566	0.2311793314021692	0.2311793314021609	0.1154112536985139	0.1743179787219699	0.08934340440958972	0.07336642818687507	0	0	0	0	0	0	0	0	0	0	0	0	0	0.08958294459944928	-0.06510260347211787	-0.000790922152763466	-0.2571139800452928	0.1634343683085924	-0.07106940955098519	-0.003841773436873122	-29.9225746409153	6.561357419456329	-25.45719590244505	-0.3847553271857698	-22.76632609880469	-626.1955034808933	56.95692753871431	0.2965973255998743	-0.6919404621549804	-0.4148691699141525	4.115679644575887	0.1051258186457762	1.423004870668692	-5.31437216834937	6.440782962116692	6.440782962116662	-1.969671096784561	0.07113922058527414	2.568642220918251	0.8790102573456529	2.630762158545019e-08	1.207914631620561e-08	-1.929189012293769e-07	1.401381517933666e-07	1.324230076664752e-08	5.22994054963025e-08	-1.922714606824792e-07
0.01	-0.002776828529585551	0.129319187497387	0.933995434201822	0.1936205233125653	-0.2205892923919932	-0.2472644760066156	-0.2906443435124668	0.2314952324824672	0.2314952324824583	0.115312305986376	0.1743192315285335	0.0894695522492872	0.07341099668159022	0.003471382264409341	-0.006861162841987499	-0.004005292934991519	0.03974679370915751	0.001228528515025668	0.01421688144355744	-0.05272299545610522	0.06289156786351253	0.06289156786351188	-0.01963454260149632	0.0002505706366182108	0.02508050432009783	0.008829992594062778	0.08521501115101379	-0.07216875707317766	-0.0003129431554603901	-0.2506308488438745	0.1518742431397486	-0.0619078070279232	-0.0003274047716692524	-29.92578256959036	3.300433480586544	-21.76794779231744	-1.294267074885562	-20.80251152392216	-627.3886003968047	64.11115963010076	0.3724642085367303	-0.6814952772207925	-0.3913218119425155	3.876850749971789	0.1267394923661294	1.412786295780345	-5.204036194910059	6.170041207672549	6.170041207672556	-1.9371111121785	0.002044491349732947	2.455399091283001	0.8724240929126228	3.354689703467375e-08	1.233359299551001e-08	-2.324310775050312e-07	1.604035033619812e-07	1.891988243189816e-08	1.823421812677612e-08	-2.22532129506812e-07
0.02	-0.002724748530417314	0.129216554962686	0.9339356947470185	0.194212170500879	-0.220571693941968	-0.2470525957679143	-0.2914273172710745	0.2324313887432393	0.2324313887432395	0.1150216597941671	0.1743229957426871	0.08984203404292994	0.07354135116874119	0.006944985795884971	-0.01365396896408738	-0.007929084136127551	0.07840044805376481	0.002257982007454596	0.02810402347036068	-0.1035569093389385	0.1240510360951824	0.124051036095183	-0.0383396960168453	0.0005022815192185751	0.04926679078928793	0.01715719848716509	0.08084707770262475	-0.07923491067422725	0.0001650358418469153	-0.2441477176424484	0.140314117970909	-0.05274620450484716	0.003186963893570888	-29.93515631283765	0.08967305181733862	-18.0832845215645	-2.187778044671169	-18.86205500581277	-627.8047692575154	71.07860844998378	0.2970415790133683	-0.6782691181776632	-0.3985688231430436	3.897051771665865	0.06531081412641425	1.357056987317867	-4.936555853694826	6.094363035748204	6.094363035748548	-1.783793259555067	0.07136726978172135	2.389798650736482	0.7784529171534746	4.078617248389731e-08	1.258803967481441e-08	-2.719432537806856e-07	1.806688549305958e-07	2.459746409714879e-08	-1.583096924275025e-08	-2.527927983311447e-07
0.03	-0.002638258450912659	0.1290466766094906	0.9338370108351697	0.1951848382755272	-0.22054486188458	-0.2467038237472313	-0.2927089288429418	0.2339705190689484	0.2339705190689576	0.1145487659157029	0.1743294989103967	0.09045228810032943	0.07375252553410036	0.01033506827881777	-0.02027602682611012	-0.01180235386212456	0.115927610999807	0.003082645977959175	0.0415872057077202	-0.152441638785033	0.1834803950766795	0.1834803950766826	-0.05609376818278565	0.0007862513628924563	0.07267506097357838	0.02501733677495777	0.07754869096690362	-0.07476602203282683	0.0003643070614947734	-0.2408196553651565	0.1362098285703475	-0.05384793411613049	0.006104844398696178	-29.95039531124815	-1.333140974960749	-18.79336225668603	-2.094593359668982	-18.18207406950172	-628.6079204446786	68.94943055298833	0.3573002781468434	-0.6473179509570548	-0.3809076954004687	3.649726482658882	0.08717485327502306	1.334509179797325	-4.815866552243487	5.823019047347376	5.82301904734761	-1.749440389935346	0.005132025064356149	2.300003737819502	0.7807222702852251	4.192760150160504e-08	9.678440394862274e-09	-2.710141527864384e-07	1.805622586686266e-07	2.824013529187032e-08	-5.270638826802656e-08	-2.539626752549868e-07
0.04	-0.002518405807551462	0.1288119489115259	0.9336997538964459	0.1965266132649392	-0.2205105570545297	-0.2462221078365998	-0.2944696747217085	0.23609510232808	0.2360951023280803	0.1139026860765835	0.1743384858132039	0.09129335736668151	0.07404048687947604	0.01361749857035488	-0.02662383791792382	-0.01564368951113019	0.1522218910092801	0.003752536538975258	0.05469280145917631	-0.1993837707181677	0.2411416227780497	0.2411416227780537	-0.07297688814159427	0.0009990285427294199	0.09542983257963018	0.03251459449046994	0.07425030423113843	-0.07029713339145298	0.0005635782810582838	-0.2374915930878968	0.1321055391697628	-0.05494966372745171	0.009022724903807367	-29.97095696719595	-2.709752498740263	-19.50901785618189	-1.984907548744449	-17.52733592431349	-628.6922668677678	66.64795185283302	0.2755111407344498	-0.6234197641360372	-0.3921820077447569	3.650475184352084	0.03435613222870162	1.281539690137215	-4.548036351102728	5.740736779722868	5.740736779722886	-1.609602818128698	0.05712873701433918	2.259098935088551	0.7058768026972986	4.294330172691039e-08	6.703603053894541e-09	-2.692512110237397e-07	1.80035622245202e-07	3.184084956967371e-08	-8.963975021404e-08	-2.545327420365508e-07
0.05	-0.002366383559468353	0.1285149932142303	0.9335241444080317	0.198225492847808	-0.2204705122741077	-0.2456116536108715	-0.2966901548716718	0.2387876524236917	0.2387876524236905	0.1130924881883828	0.1743497354414073	0.09235855532941545	0.07440135577970794	0.0167731154251734	-0.03273340608231447	-0.01947923401652026	0.1873638282324286	0.004235276078861005	0.06732771719214159	-0.2444080543248095	0.2970808286536158	0.2970808286536126	-0.08892524817009848	0.001237280306651949	0.1174898271548547	0.0396028628253076	0.07044093837133165	-0.06841594591812804	0.0008517510420455131	-0.2336114988833885	0.1259727263937896	-0.05323227945703324	0.0122872726442702	-29.99629902289636	-4.601249665079827	-19.02885238655161	-2.136267766165692	-16.50327493711727	-629.116990323299	66.79085340206082	0.333516719984509	-0.599634626948906	-0.3794127750282431	3.417526549374638	0.0520621157731052	1.243954382486782	-4.433993622637007	5.477368741068003	5.477368741066948	-1.566857937950484	0.005165523299163812	2.161466030835453	0.7018326738640133	4.105520319674197e-08	3.379256826548148e-09	-2.481830246277171e-07	1.657055030079512e-07	3.307126772879593e-08	-1.209499290922653e-07	-2.350080239878095e-07
0.06	-0.002183219190424414	0.1281579599784187	0.9333101450539446	0.2002700865145162	-0.2204262742481038	-0.2448769528542914	-0.2993517517091425	0.2420309658279793	0.2420309658279796	0.1121269256313554	0.1743629660126823	0.09364075650032021	0.07483141352828562	0.01984592276519531	-0.03863934562113958	-0.0233216626456751	0.2213647077787154	0.004591185654929002	0.07954210762953418	-0.287607108219108	0.3512942845129607	0.3512942845129501	-0.104049821908171	0.001395217159289622	0.1388304742139176	0.04635236415962487	0.06663157251153366	-0.06653475844479929	0.001139923803010417	-0.2297314046788806	0.1198399136178169	-0.05151489518660959	0.01555182038474053	-30.0256818275883	-6.449773575584524	-18.55166477453976	-2.275157175402276	-15.50989336413334	-628.8848452206315	66.78699332463648	0.2589492377753301	-0.5826940390230909	-0.393558832497701	3.422263648979751	0.008990139465141019	1.197434631022719	-4.182990408633937	5.39558677647865	5.395586776478615	-1.444845560042339	0.04106575475735206	2.115229431856071	0.638123402593154	3.904483945581676e-08	4.019443556476092e-11	-2.263019858260809e-07	1.507941844943289e-07	3.420188394607893e-08	-1.520233423676363e-07	-2.146372097356869e-07
